<svg xmlns="http://www.w3.org/2000/svg" viewBox="339.70 -0.60 114.10 120.50" fill="#2E5F82" aria-hidden="true"><!-- Operation Smile emblem (globe + smile), from the official operation-smile-canada.svg, tinted navy for the partner chips --><path d="M373.42,67.69c-5.49-.62-10.7-1.94-15.6-3.94-.22-.77-.49-1.5-.68-2.31-2.12-8.75-2.3-16.83-.79-24.02,5.29,1.75,10.27,2.68,14.96,2.98-.3,2.61-.44,5.23-.44,7.83,0,6.69.92,13.25,2.56,19.46M381.78,74.34c9.43-.58,20.69-3.65,33.9-10.97l-.96-2.21c-12.27,4.75-23.84,7.06-34.48,6.96-2.04-9.36-2.73-18.1-2.73-25.56,0-.72.02-1.43.02-2.12,13.64-.76,24.23-6.79,31.44-12.72,3.55,6.81,5.54,14.72,6.88,25.21,1.45,11.33-.34,22.85-2.53,31.63-7.35,5.37-16.44,7.68-25.33,6.57-2.65-5.67-4.67-11.31-6.2-16.79M360.53,71.01c4.18,1.73,9.15,3.02,14.97,3.36,2.12,5.84,4.9,11.24,8.13,15.94-1.03-.26-2.05-.56-3.07-.92-8.84-3.15-15.73-9.53-20.03-18.38M349.8,64.65c3.72,13.26,9.21,18.89,14.6,22.95l.03.02c20.64,14.66,39.44,6.11,47.92.59-1.96,6.9-3.9,11.4-3.95,11.49.02-.03,2.06,1.03,2.06,1.03,8.99-16.64,13.5-31.94,13.5-45.74,0-.32-.03-.64-.04-.96l1.24,1.88s.06-.06.09-.08h.01s.22-.19.36-.31c3.99-2.69,7.32-6.66,9.79-11.41.01.45.05.88.05,1.34,0,10.46-3.74,22.22-9.29,28.53,0,0-.03.03-.03.04l1.71,1.64s.02-.02.02-.02c.22-.27,22.46-27.14,9.94-53.31-12.58-26.29-42.73-19.68-43.03-19.6l.33,2.39c19.45-.98,33.88,9.8,38.68,28.03-1.46,13.22-9.24,20.15-9.89,20.7-.12-6.58-1.24-12.82-3.44-18.68-1.7-4.52-3.92-8.53-6.44-12.08,3.97-4.03,6.07-7.2,6.14-7.32l-1.74-1.58c-2.2,2.11-4.46,4.03-6.75,5.82C399.97,5.67,384.03.07,383.83,0l-.12.45c11.37,7.61,17.95,15.7,22.91,23.24-8.99,5.91-18.61,9.39-28.82,10.48.54-7.96,1.71-13.45,2.11-15.15.13-.25.21-.51.33-.76l-1.96-1.3-.28.43-.11.16s-.11.4-.16.65c-2.61,5.32-4.39,10.81-5.5,16.33-4.81.11-9.75-.3-14.81-1.22,3.95-12.27,13.42-21.5,27.78-26.22l-.69-2.34s-.02,0-.03,0h0c-.18.06-2.59.82-6.11,2.47-.74.33-1.44.69-2.14,1.05-7.71,3.92-18.84,11.41-24.69,23.75-1.93-.5-3.87-1.05-5.84-1.69,0,0-.17.58-.33,1.16-.24.54-.5,1.09-.5,1.09,1.82.94,3.6,1.76,5.35,2.52-1.63,4.34-2.63,9.21-2.63,14.69,0,2.85.29,5.87.86,9.05-1.26-.84-2.51-1.71-3.73-2.66l-1.4,1.89s.2.17.3.27c.3.42,2.32,3.19,6.16,6.31"/><path d="M445.85,84.04l-.62-.15c-12.93,18.09-30,27.21-50.21,27.59-23.09.43-43.5-11.54-54.77-29.74,11.25,22.7,33.76,37.99,59.43,37.52,22.47-.42,42.04-12.87,53.54-31.48-3.03-1.46-5.5-2.74-7.36-3.74"/></svg>